<?xml version="1.0" standalone="no"?>
<!DOCTYPE svg PUBLIC "-//W3C//DTD SVG 20010904//EN"
 "http://www.w3.org/TR/2001/REC-SVG-20010904/DTD/svg10.dtd">
<svg version="1.0" xmlns="http://www.w3.org/2000/svg"
 width="100.000000pt" height="100.000000pt" viewBox="0 0 100.000000 100.000000"
 preserveAspectRatio="xMidYMid meet">
<metadata>
Created by potrace 1.11, written by Peter Selinger 2001-2013
</metadata>
<g transform="translate(0.000000,100.000000) scale(0.100000,-0.100000)"
fill="#000000" stroke="none">
<path d="M255 988 c-4 -14 -24 -89 -32 -123 -18 -80 -22 -167 -11 -251 l7 -51
-40 -13 c-52 -17 -115 -72 -141 -124 -19 -37 -30 -112 -30 -196 1 -51 15 -80
39 -80 13 0 14 2 2 17 -8 10 11 -4 41 -31 81 -72 127 -89 235 -90 66 -1 99 4
123 16 32 17 34 16 36 -22 1 -8 12 -17 25 -18 15 -2 21 0 17 7 -4 6 -2 11 3
11 6 0 11 14 11 31 0 18 -4 28 -10 24 -6 -4 -8 -16 -5 -28 6 -20 5 -21 -6 -3
-9 15 -7 22 15 42 14 14 28 24 31 24 3 0 4 2 3 5 -2 2 6 10 16 18 10 8 16 19
12 25 -4 6 1 10 11 9 14 -1 18 -11 19 -44 1 -24 -1 -43 -5 -43 -4 0 -7 -9 -7
-19 0 -11 4 -17 8 -15 4 3 8 1 8 -4 0 -13 41 -2 57 14 7 6 9 15 5 19 -4 5 2 5
13 0 30 -11 50 -11 50 0 0 6 -5 9 -12 7 -7 -2 -13 4 -13 13 0 8 -5 15 -11 15
-5 0 -7 5 -3 11 4 7 1 10 -7 7 -8 -3 -13 -13 -11 -23 2 -10 -2 -15 -9 -13 -20
7 -18 76 2 81 9 2 16 -2 16 -9 0 -7 -5 -10 -11 -7 -6 3 1 -5 17 -20 15 -14 27
-31 27 -37 0 -6 5 -8 11 -5 6 5 4 16 -7 33 -16 24 -16 26 -1 13 20 -16 23 -1
5 18 -11 11 -10 12 1 6 10 -6 13 -4 9 7 -4 9 2 21 14 29 11 8 26 20 34 27 19
18 24 15 24 -15 0 -30 -52 -98 -65 -85 -10 10 -2 -31 9 -44 7 -7 15 -6 27 4
18 16 15 47 -4 35 -6 -4 -7 -1 -3 6 5 7 11 10 14 7 3 -3 12 0 21 7 14 11 14
10 3 -5 -12 -15 -12 -20 1 -33 31 -30 75 -6 62 35 -8 24 -5 24 42 5 71 -30 88
9 23 50 l-40 25 21 29 c12 16 18 34 15 40 -11 17 -21 13 -36 -13 -7 -14 -18
-27 -24 -29 -15 -6 -14 67 3 122 39 133 -48 279 -188 316 -43 11 -138 11 -149
0 -7 -7 -84 50 -129 97 -23 23 -55 71 -73 105 -30 61 -61 93 -88 93 -7 0 -15
-6 -17 -12z m88 -177 c19 -26 58 -68 85 -92 l51 -43 -43 -46 c-24 -25 -45 -50
-47 -56 -2 -5 -25 -8 -51 -6 l-47 4 -9 51 c-13 79 -2 237 18 237 4 0 24 -22
43 -49z m-305 -616 c-3 -3 -9 2 -12 12 -6 14 -5 15 5 6 7 -7 10 -15 7 -18z
m772 -69 c0 -2 -7 -6 -15 -10 -8 -3 -15 -1 -15 4 0 6 7 10 15 10 8 0 15 -2 15
-4z m-160 -46 c0 -5 -2 -10 -4 -10 -3 0 -8 5 -11 10 -3 6 -1 10 4 10 6 0 11
-4 11 -10z"/>
</g>
</svg>
